<svg width="264" height="298" viewBox="0 0 264 298" fill="none" xmlns="http://www.w3.org/2000/svg">
<path d="M79.9868 92.1496L49.2703 122.117C26.0458 60.6839 70.2473 0 133.928 0C195.061 0 235.816 65.9282 214.09 119.869L186.371 91.4004L199.107 77.9151L190.117 69.6741L177.381 83.1594L133.928 38.9575L88.2279 83.9086L75.4917 69.6741L66.5015 77.9151L79.9868 92.1496Z" fill="black"/>
<path d="M133.928 56.1888L96.4686 92.8988L107.706 105.635L131.68 80.9118L156.403 105.635L169.139 92.1496L133.928 56.1888Z" fill="black"/>
<path d="M131.68 97.3939L115.947 113.876L131.68 131.856L148.911 113.876L131.68 97.3939Z" fill="black"/>
<path d="M177.381 100.391L137.674 143.094V177.557C173.635 177.557 200.106 146.59 208.846 131.107L177.381 100.391Z" fill="black"/>
<path d="M88.2273 101.14L55.2632 134.104C74.4423 168.267 110.203 177.307 125.686 177.557V143.094L88.2273 101.14Z" fill="black"/>
<path d="M0.61 282L20.252 238.385H35.319L54.961 282H44.347L40.199 272.789H15.372L11.224 282H0.61ZM18.91 264.859H36.661L28.182 246.01H27.389L18.91 264.859ZM85.6149 282L65.9729 238.385H76.5869L92.7519 274.375H93.5449L109.71 238.385H120.324L100.682 282H85.6149ZM156.413 282L136.771 238.385H147.385L163.55 274.375H164.343L180.508 238.385H191.122L171.48 282H156.413ZM230.688 282V266.445L207.569 238.385H219.647L235.568 258.149L251.428 238.385H263.506L240.509 266.384V282H230.688Z" fill="black"/>
</svg>
